<?xml version="1.0" encoding="utf-8"?>
<!-- Generator: Adobe Illustrator 16.0.0, SVG Export Plug-In . SVG Version: 6.00 Build 0)  -->
<!DOCTYPE svg PUBLIC "-//W3C//DTD SVG 1.1//EN" "http://www.w3.org/Graphics/SVG/1.1/DTD/svg11.dtd">
<svg version="1.1" id="Capa_1" xmlns="http://www.w3.org/2000/svg" xmlns:xlink="http://www.w3.org/1999/xlink" x="0px" y="0px"
	 width="1200px" height="400px" viewBox="0 0 1200 400" enable-background="new 0 0 1200 400" xml:space="preserve">
<g>
	<g>
		<path fill="#3244AD" d="M482.388,164.537c9.984,11.3,14.976,27.165,14.976,47.597c0,4.027-0.08,7.046-0.232,9.056h-91.712
			c2.01,8.822,6.153,15.752,12.422,20.78c6.269,5.031,13.967,7.546,23.102,7.546c6.345,0,12.421-1.197,18.226-3.6
			c5.805-2.397,10.873-5.841,15.208-10.332l16.252,16.949c-6.192,6.813-13.738,12.074-22.638,15.789
			c-8.902,3.715-18.77,5.572-29.603,5.572c-12.694,0-23.878-2.631-33.55-7.895c-9.675-5.26-17.145-12.653-22.405-22.173
			c-5.264-9.52-7.895-20.469-7.895-32.854c0-12.382,2.67-23.37,8.01-32.97c5.34-9.596,12.807-17.065,22.406-22.405
			c9.596-5.34,20.508-8.011,32.738-8.011C457.504,147.587,472.404,153.239,482.388,164.537z M469.734,200.989
			c-0.312-9.131-3.331-16.405-9.055-21.825c-5.729-5.416-13.314-8.126-22.754-8.126c-8.823,0-16.216,2.67-22.173,8.01
			c-5.96,5.341-9.636,12.654-11.029,21.941H469.734z"/>
		<path fill="#0ED3DF" d="M621.928,141.551c-7.818-3.715-15.752-5.572-23.799-5.572c-10.063,0-19.271,2.401-27.629,7.197
			c-8.358,4.8-14.939,11.417-19.735,19.852c-4.799,8.438-7.198,17.686-7.198,27.746c0,10.063,2.398,19.311,7.198,27.745
			c4.796,8.438,11.377,15.092,19.735,19.968c8.359,4.876,17.566,7.314,27.629,7.314c7.738,0,15.518-1.702,23.334-5.108
			c7.814-3.403,14.744-8.126,20.781-14.163l18.342,20.432c-8.514,8.671-18.422,15.521-29.719,20.549
			c-11.301,5.031-22.754,7.546-34.363,7.546c-15.636,0-29.951-3.716-42.954-11.146c-13.002-7.43-23.218-17.529-30.648-30.3
			c-7.43-12.77-11.145-26.893-11.145-42.373c0-15.477,3.791-29.563,11.377-42.257c7.582-12.69,17.914-22.674,30.996-29.952
			c13.079-7.273,27.59-10.912,43.533-10.912c11.609,0,22.986,2.322,34.131,6.965c11.146,4.644,20.664,11.068,28.559,19.271
			l-18.109,22.754C636.516,150.453,629.742,145.266,621.928,141.551z"/>
		<path fill="#0ED3DF" d="M686.126,100.455h30.184v172.279h-30.184V100.455z"/>
		<path fill="#0ED3DF" d="M782.246,100.222c3.251,3.407,4.876,7.742,4.876,13.002c0,5.108-1.625,9.367-4.876,12.77
			c-3.25,3.406-7.354,5.108-12.306,5.108c-4.955,0-9.055-1.702-12.306-5.108c-3.25-3.403-4.875-7.662-4.875-12.77
			c0-5.261,1.625-9.596,4.875-13.002c3.251-3.403,7.351-5.108,12.306-5.108C774.893,95.114,778.996,96.819,782.246,100.222z
			 M755.081,148.517h30.184v124.217h-30.184V148.517z"/>
		<path fill="#0ED3DF" d="M931.071,160.241c8.203,8.591,12.306,20.24,12.306,34.943v77.549h-30.416v-68.726
			c0-8.667-2.478-15.517-7.43-20.548c-4.955-5.028-11.688-7.547-20.199-7.547c-10.063,0.156-17.994,3.563-23.799,10.217
			c-5.805,6.657-8.707,15.171-8.707,25.54v61.063h-30.184V148.517h30.184v23.218c8.511-15.94,23.371-24.067,44.579-24.379
			C911.645,147.355,922.865,151.65,931.071,160.241z"/>
		<path fill="#0ED3DF" d="M1004.438,100.222c3.251,3.407,4.876,7.742,4.876,13.002c0,5.108-1.625,9.367-4.876,12.77
			c-3.25,3.406-7.354,5.108-12.306,5.108c-4.955,0-9.055-1.702-12.306-5.108c-3.25-3.403-4.875-7.662-4.875-12.77
			c0-5.261,1.625-9.596,4.875-13.002c3.251-3.403,7.351-5.108,12.306-5.108C997.084,95.114,1001.188,96.819,1004.438,100.222z
			 M977.272,148.517h30.184v124.217h-30.184V148.517z"/>
		<path fill="#0ED3DF" d="M1097.771,174.056c-10.063,0-18.227,3.407-24.495,10.217c-6.269,6.813-9.403,15.636-9.403,26.469
			c0,11.145,3.135,20.123,9.403,26.933c6.269,6.813,14.432,10.216,24.495,10.216c14.859,0,26.005-4.876,33.435-14.627l18.807,15.556
			c-5.572,8.051-12.926,14.243-22.058,18.575c-9.135,4.335-19.735,6.501-31.809,6.501c-12.229,0-23.103-2.631-32.622-7.895
			c-9.52-5.26-16.913-12.653-22.173-22.173c-5.265-9.52-7.895-20.469-7.895-32.854c0-12.537,2.67-23.603,8.011-33.201
			c5.34-9.596,12.77-17.026,22.289-22.29c9.52-5.26,20.469-7.895,32.854-7.895c11.298,0,21.397,1.974,30.3,5.921
			c8.899,3.947,16.137,9.56,21.709,16.833l-18.342,17.414C1121.918,178.624,1111.082,174.056,1097.771,174.056z"/>
	</g>
	<g>
		<path fill-rule="evenodd" clip-rule="evenodd" fill="#28328C" d="M229.712,153.644c-6.548,8.188-11.463,13.811-15.793,19.854
			c-16.771,23.392-22.443,49.235-16.82,77.563c2.011,10.151,3.796,20.366,5.203,30.614c3.712,26.983-12.151,47.769-38.059,50.208
			c-23.557,2.226-44.772-17.522-45.988-43.167c-1.28-26.839,9.456-49.96,23.893-71.429c19.413-28.875,45.58-49.651,78.403-61.7
			C222.409,154.9,224.456,154.733,229.712,153.644z"/>
		<path fill-rule="evenodd" clip-rule="evenodd" fill="#0ED3DF" d="M104.46,211.026c6.382-8.318,11.188-14.037,15.397-20.165
			c16.303-23.719,21.465-49.667,15.286-77.882c-2.218-10.105-4.201-20.285-5.809-30.503c-4.241-26.907,11.206-47.995,37.057-50.953
			c23.509-2.691,45.111,16.637,46.836,42.254c1.805,26.807-8.466,50.132-22.479,71.888c-18.839,29.253-44.586,50.537-77.167,63.237
			C111.739,209.619,109.692,209.83,104.46,211.026z"/>
		<path fill-rule="evenodd" clip-rule="evenodd" fill="#3244AD" d="M258.985,150.654c29.216,0.117,49.021,18.33,48.581,44.691
			c-0.404,23.936-21.582,43.193-45.466,40.149c-18.072-2.302-35.934-6.272-53.914-9.354c-4.718-0.81-6.552-3.229-5.732-7.869
			c4.702-26.731,18.994-47.718,39.497-64.702C246.612,149.714,253.124,150.702,258.985,150.654z"/>
		<path fill-rule="evenodd" clip-rule="evenodd" fill="#19C1CE" d="M67.921,128.535c11.116,0.187,21.748,3.349,32.568,5.368
			c5.078,0.948,10.119,2.263,15.233,2.755c8.215,0.792,15.269-0.137,15.866,2.185c0.776,3.021-0.816,7.909-3.066,16.578
			c-5.469,21.089-15.918,36.027-32.087,53.443c-3.761,3.886-3.665,4.528-7.344,4.926c-3.24,0.342-6.386,0.88-9.933,0.858
			c-9.278-0.052-19.761-2.411-27.468-5.448c-15.163-5.983-23.984-18.314-25.588-34.827C23.634,148.99,42.635,128.39,67.921,128.535z
			"/>
	</g>
</g>
</svg>
