<svg id="Capa_1" data-name="Capa 1" xmlns="http://www.w3.org/2000/svg" viewBox="0 0 1135.04 300.78"><defs><style>.cls-1,.cls-2{fill:#fff;}.cls-2{fill-rule:evenodd;}</style></defs><path class="cls-1" d="M484.78,165.07q15.68,17.42,15.67,48.53c0,3.71-.08,6.58-.23,8.59H410.6q3,11.84,11.61,18.46t20.66,6.61a44,44,0,0,0,16.95-3.36A44.71,44.71,0,0,0,474.45,234l18.81,19a63.21,63.21,0,0,1-23.11,16.37,77.73,77.73,0,0,1-30.3,5.69q-19.73,0-34.48-7.9a55.34,55.34,0,0,1-22.75-22.29q-8-14.38-8-33.2,0-19,8.13-33.55a56.87,56.87,0,0,1,22.75-22.52q14.63-8,33.43-8Q469.1,147.66,484.78,165.07Zm-18,36q-.48-12.3-7.9-19.73t-19.73-7.43q-11.62,0-19.39,7.31t-9.87,19.85Z" transform="translate(-26.89 -32.27)"/><path class="cls-1" d="M622.69,146.38a49.82,49.82,0,0,0-22.64-5.69,48.74,48.74,0,0,0-42.95,25.08,51.88,51.88,0,0,0-6.5,25.77,52.52,52.52,0,0,0,6.5,25.89A48.92,48.92,0,0,0,575,236a47.64,47.64,0,0,0,25.07,6.85,52.47,52.47,0,0,0,22.18-5.22,69.5,69.5,0,0,0,20.08-14L663.91,247a97.88,97.88,0,0,1-30.54,21.36,84.91,84.91,0,0,1-35.17,7.9q-23.93,0-43.42-11A80.57,80.57,0,0,1,524.13,235,84.25,84.25,0,0,1,513,192a81.1,81.1,0,0,1,42.6-72.45,89.88,89.88,0,0,1,44-10.91,91.74,91.74,0,0,1,64.08,27.17l-21.36,26.23A61.78,61.78,0,0,0,622.69,146.38Z" transform="translate(-26.89 -32.27)"/><path class="cls-1" d="M686.19,101.45H722V273.73H686.19Z" transform="translate(-26.89 -32.27)"/><path class="cls-1" d="M789.39,98.9q5.46,5.58,5.46,14.4t-5.46,14.39a18.78,18.78,0,0,1-14,5.57,18.3,18.3,0,0,1-13.82-5.69,19.78,19.78,0,0,1-5.45-14.27q0-8.83,5.45-14.4a18.54,18.54,0,0,1,13.82-5.57A18.82,18.82,0,0,1,789.39,98.9ZM757.7,148.82h35.76V273.73H757.7Z" transform="translate(-26.89 -32.27)"/><path class="cls-1" d="M940.08,160.43q12.4,13,12.42,34.83v78.47H916.74v-68q0-11.83-6.61-18.69t-18-6.85q-13.23.24-20.9,9.18t-7.66,22.87v61.52H827.82V148.82h35.75v21.82q13-22.74,43.19-23.21Q927.66,147.43,940.08,160.43Z" transform="translate(-26.89 -32.27)"/><path class="cls-1" d="M1015.07,98.9q5.46,5.58,5.46,14.4t-5.46,14.39a18.79,18.79,0,0,1-14.05,5.57,18.28,18.28,0,0,1-13.81-5.69,19.78,19.78,0,0,1-5.46-14.27q0-8.83,5.46-14.4A18.51,18.51,0,0,1,1001,93.33,18.82,18.82,0,0,1,1015.07,98.9Zm-31.69,49.92h35.75V273.73H983.38Z" transform="translate(-26.89 -32.27)"/><path class="cls-1" d="M1109,178.07q-13.47,0-22,9.18t-8.47,24.26q0,15.09,8.36,24.49a27.3,27.3,0,0,0,21.36,9.41q19.5,0,29-14.63l24.61,16.72a52.94,52.94,0,0,1-22.17,20.43q-14.28,7.2-33.32,7.2-18.81,0-33.2-7.9a55.9,55.9,0,0,1-22.41-22.29q-8-14.38-8-33.2,0-19,8-33.55a56.32,56.32,0,0,1,22.53-22.52q14.51-8,33.55-8,17.86,0,31.81,6.85A55.91,55.91,0,0,1,1161,173.9l-24.14,17.41Q1126.17,178.08,1109,178.07Z" transform="translate(-26.89 -32.27)"/><path class="cls-2" d="M230.71,154.64c-6.55,8.19-11.46,13.81-15.79,19.86-16.77,23.39-22.44,49.23-16.82,77.56,2,10.15,3.8,20.37,5.2,30.61,3.71,27-12.15,47.77-38.06,50.21-23.55,2.23-44.77-17.52-46-43.17-1.27-26.83,9.46-50,23.9-71.42,19.41-28.88,45.58-49.66,78.4-61.7C223.41,155.9,225.46,155.73,230.71,154.64Z" transform="translate(-26.89 -32.27)"/><path class="cls-2" d="M105.46,212c6.38-8.32,11.19-14,15.4-20.17,16.3-23.72,21.46-49.67,15.28-77.88-2.21-10.11-4.2-20.29-5.81-30.5-4.24-26.91,11.21-48,37.06-51,23.51-2.69,45.11,16.64,46.84,42.26,1.8,26.8-8.47,50.13-22.48,71.88-18.84,29.26-44.59,50.54-77.17,63.24C112.74,210.62,110.69,210.83,105.46,212Z" transform="translate(-26.89 -32.27)"/><path class="cls-2" d="M260,151.65c29.22.12,49,18.33,48.59,44.7-.41,23.93-21.59,43.19-45.47,40.15-18.07-2.31-35.93-6.28-53.91-9.36-4.72-.81-6.56-3.23-5.74-7.87,4.71-26.73,19-47.72,39.5-64.7C247.61,150.71,254.12,151.7,260,151.65Z" transform="translate(-26.89 -32.27)"/><path class="cls-2" d="M68.92,129.54c11.12.18,21.75,3.34,32.57,5.36,5.08.95,10.12,2.27,15.23,2.76,8.22.79,15.27-.14,15.87,2.18.77,3-.82,7.91-3.07,16.58-5.47,21.09-15.92,36-32.08,53.44-3.77,3.89-3.67,4.53-7.35,4.93a86,86,0,0,1-9.93.86,81.29,81.29,0,0,1-27.47-5.45c-15.16-6-24-18.31-25.59-34.83C24.63,150,43.63,129.39,68.92,129.54Z" transform="translate(-26.89 -32.27)"/></svg>